<svg xmlns="http://www.w3.org/2000/svg" viewBox="0 0 320 360">
  <defs>
    <linearGradient id="shieldGradient" x1="0" y1="0" x2="0" y2="1">
      <stop offset="0%" stop-color="#0d3c79" />
      <stop offset="100%" stop-color="#001f3f" />
    </linearGradient>
  </defs>
  <g fill="none" fill-rule="evenodd">
    <!-- Outer swoosh banner -->
    <path d="M10 210c20 90 120 140 150 140s130-50 150-140l-35-10c-15 65-90 110-115 110s-105-45-120-110L10 210z" fill="#003a73" />
    <path d="M35 215c18 75 106 120 125 120s107-45 125-120l-22-6c-16 63-86 102-103 102s-87-39-103-102l-22 6z" fill="#ffffff" />
    <!-- Banner text area -->
    <path d="M50 230c13 52 88 90 110 90s97-38 110-90" stroke="#003a73" stroke-width="18" stroke-linecap="round" fill="none" />
    <text x="160" y="295" text-anchor="middle" font-family="'Inter', 'Poppins', sans-serif" font-weight="600" font-size="24" fill="#003a73">DETERMINATION</text>
    <text x="160" y="325" text-anchor="middle" font-family="'Inter', 'Poppins', sans-serif" font-weight="600" font-size="24" fill="#003a73">&amp; PERSEVERANCE</text>
    <!-- Shield -->
    <path d="M35 60v130c0 80 105 120 125 120s125-40 125-120V60l-125-45L35 60z" fill="url(#shieldGradient)" stroke="#003a73" stroke-width="10" />
    <!-- White saltire -->
    <path d="M65 60l190 190" stroke="#ffffff" stroke-width="32" stroke-linecap="round" />
    <path d="M255 60L65 250" stroke="#ffffff" stroke-width="32" stroke-linecap="round" />
    <!-- Red cross -->
    <rect x="110" y="85" width="100" height="120" rx="6" fill="#C0392B" />
    <rect x="145" y="60" width="30" height="170" fill="#ffffff" />
    <rect x="95" y="120" width="130" height="30" fill="#ffffff" />
    <!-- Palm tree -->
    <path d="M160 120c-5-15-18-28-35-30 18-10 38-8 52 5 10-12 31-19 49-10-15 0-28 12-33 26 12-4 26-1 35 8-13-1-24 5-29 16 9 2 18 8 23 15-12-4-23-3-31 3 2 18 1 36-2 54h-16c3-20 4-39 1-58-8-5-19-7-30-4 6-8 16-13 26-13-7-11-19-17-31-17 15-9 31-6 41 5z" fill="#1b7f49" />
    <rect x="154" y="180" width="12" height="40" fill="#7b4f26" />
    <!-- Book emblem -->
    <rect x="125" y="220" width="70" height="38" rx="6" fill="#ffffff" stroke="#003a73" stroke-width="6" />
    <path d="M160 226c-14-8-28-8-35-2v24c7-6 21-6 35 2 14-8 28-8 35-2v-24c-7-6-21-6-35 2z" fill="#ffffff" stroke="#003a73" stroke-width="4" />
    <!-- Header text -->
    <rect x="70" y="15" width="180" height="40" rx="12" fill="#ffffff" />
    <text x="160" y="42" text-anchor="middle" font-family="'Inter', 'Poppins', sans-serif" font-weight="600" font-size="20" fill="#003a73">BEREKUM PRESEC SNR. HIGH SCHOOL</text>
  </g>
</svg>
